<svg xmlns="http://www.w3.org/2000/svg" width="30" height="21" viewBox="0 0 30 21">
    <path class="a"
        d="M4.875,5.25H2.625A1.122,1.122,0,0,0,1.5,6.375V11.25H.375A.376.376,0,0,0,0,11.625v2.25a.376.376,0,0,0,.375.375H1.5v4.875A1.122,1.122,0,0,0,2.625,20.25h2.25A1.122,1.122,0,0,0,6,19.125V6.375A1.122,1.122,0,0,0,4.875,5.25Zm24.75,6H28.5V6.375A1.122,1.122,0,0,0,27.375,5.25h-2.25A1.122,1.122,0,0,0,24,6.375v12.75a1.122,1.122,0,0,0,1.125,1.125h2.25A1.122,1.122,0,0,0,28.5,19.125V14.25h1.125A.376.376,0,0,0,30,13.875v-2.25A.376.376,0,0,0,29.625,11.25Zm-8.25-9h-2.25A1.122,1.122,0,0,0,18,3.375V11.25H12V3.375A1.122,1.122,0,0,0,10.875,2.25H8.625A1.122,1.122,0,0,0,7.5,3.375v18.75A1.122,1.122,0,0,0,8.625,23.25h2.25A1.122,1.122,0,0,0,12,22.125V14.25h6v7.875a1.122,1.122,0,0,0,1.125,1.125h2.25A1.122,1.122,0,0,0,22.5,22.125V3.375A1.122,1.122,0,0,0,21.375,2.25Z"
        transform="translate(0 -2.25)" />
</svg>