<svg xmlns="http://www.w3.org/2000/svg" width="29.264" height="29.243" viewBox="0 0 29.264 29.243">
    <path class="a"
        d="M27.077,16.186a27.19,27.19,0,0,0-6.068.949,2.98,2.98,0,0,0-.26-.64,26.664,26.664,0,0,0,4.957-3.614c2.58-2.58,3.4-4.472,2.644-5.224a.971.971,0,0,0-.724-.267c-.97,0-2.531.942-4.5,2.911a26.935,26.935,0,0,0-3.614,4.95,3.229,3.229,0,0,0-.64-.267,26.732,26.732,0,0,0,.949-6.054c0-3.649-.759-5.562-1.828-5.562S16.165,5.28,16.165,8.93a26.671,26.671,0,0,0,.949,6.054,3,3,0,0,0-.64.267A26.614,26.614,0,0,0,12.86,10.3C10.891,8.332,9.323,7.39,8.36,7.39a1,1,0,0,0-.724.267c-.759.759.056,2.644,2.644,5.224A26.9,26.9,0,0,0,15.237,16.5a3.21,3.21,0,0,0-.26.64,26.791,26.791,0,0,0-6.068-.949c-3.642,0-5.534.745-5.534,1.814s1.891,1.842,5.548,1.842A26.863,26.863,0,0,0,15,18.886a2.947,2.947,0,0,0,.267.633,26.8,26.8,0,0,0-4.971,3.621c-2.58,2.58-3.4,4.472-2.644,5.224a.971.971,0,0,0,.724.267c.97,0,2.531-.942,4.5-2.911A26.885,26.885,0,0,0,16.5,20.742a3.148,3.148,0,0,0,.633.26,26.923,26.923,0,0,0-.956,6.082c0,3.649.759,5.527,1.828,5.527s1.828-1.877,1.828-5.527A26.862,26.862,0,0,0,18.879,21a3.077,3.077,0,0,0,.633-.26A26.567,26.567,0,0,0,23.14,25.72c1.969,1.969,3.537,2.911,4.5,2.911a1,1,0,0,0,.724-.267c.759-.759-.056-2.644-2.644-5.224a27.035,27.035,0,0,0-4.971-3.621,3.167,3.167,0,0,0,.267-.633,26.863,26.863,0,0,0,6.075.956c3.649,0,5.548-.759,5.548-1.828S30.734,16.186,27.077,16.186Z"
        transform="translate(-3.375 -3.368)" />
    <path class="a"
        d="M22.388,26.466a17.963,17.963,0,0,1-1.744-2.074,18.434,18.434,0,0,1,.232,2.7,20.092,20.092,0,0,1-.112,2.257c.865,1.533,1.709,2.3,2.391,2.3a.891.891,0,0,0,.33-.063c.773-.316.935-1.638.316-3.818C23.351,27.394,22.88,26.958,22.388,26.466Z"
        transform="translate(-3.375 -3.368)" />
    <path class="a"
        d="M13.627,9.57a18.337,18.337,0,0,1,1.73,2.053,18.286,18.286,0,0,1-.225-2.686,20.092,20.092,0,0,1,.113-2.257c-.865-1.533-1.709-2.3-2.391-2.3a.891.891,0,0,0-.33.063c-.773.316-.935,1.638-.316,3.818C12.656,8.641,13.134,9.077,13.627,9.57Z"
        transform="translate(-3.375 -3.368)" />
    <path class="a"
        d="M9.548,22.4a17.963,17.963,0,0,1,2.074-1.744,18.434,18.434,0,0,1-2.7.232,20.092,20.092,0,0,1-2.257-.112C4.873,21.79,4.127,22.76,4.43,23.5c.183.45.71.7,1.554.7a8.481,8.481,0,0,0,2.264-.38C8.627,23.365,9.056,22.894,9.548,22.4Z"
        transform="translate(-3.375 -3.368)" />
    <path class="a"
        d="M26.452,13.627a17.963,17.963,0,0,1-2.074,1.744,18.434,18.434,0,0,1,2.7-.232,20.092,20.092,0,0,1,2.257.113c1.793-1.012,2.538-1.983,2.236-2.721-.183-.45-.71-.7-1.554-.7a8.481,8.481,0,0,0-2.264.38C27.373,12.67,26.944,13.141,26.452,13.627Z"
        transform="translate(-3.375 -3.368)" />
    <path class="a"
        d="M13.613,26.466a20.736,20.736,0,0,1-1.673,1.519c-.548,1.983-.387,3.192.345,3.509a.84.84,0,0,0,.345.07c.724,0,1.631-.844,2.58-2.545-.049-.591-.077-1.23-.077-1.92a18.434,18.434,0,0,1,.232-2.7A19.3,19.3,0,0,1,13.613,26.466Z"
        transform="translate(-3.375 -3.368)" />
    <path class="a"
        d="M22.388,9.577a20.546,20.546,0,0,1,1.666-1.512c.555-2,.4-3.22-.337-3.53a.84.84,0,0,0-.345-.07c-.724,0-1.631.844-2.58,2.545.049.591.077,1.23.077,1.92a18.794,18.794,0,0,1-.232,2.721A19.4,19.4,0,0,1,22.388,9.577Z"
        transform="translate(-3.375 -3.368)" />
    <path class="a"
        d="M7,15.223c.591-.049,1.23-.077,1.92-.077a18.341,18.341,0,0,1,2.693.232,18.484,18.484,0,0,1-2.067-1.744,21.057,21.057,0,0,1-1.526-1.68,7.848,7.848,0,0,0-2.011-.323c-.8,0-1.308.232-1.491.668C4.2,13.064,5.02,14.119,7,15.223Z"
        transform="translate(-3.375 -3.368)" />
    <path class="a"
        d="M29,20.813c-.591.049-1.23.077-1.92.077a18.434,18.434,0,0,1-2.7-.232A18.7,18.7,0,0,1,26.452,22.4a22.145,22.145,0,0,1,1.519,1.673,7.643,7.643,0,0,0,2.011.33c.8,0,1.308-.232,1.491-.668C31.8,22.964,30.98,21.916,29,20.813Z"
        transform="translate(-3.375 -3.368)" />
</svg>