<svg xmlns="http://www.w3.org/2000/svg" width="25" height="29.63" viewBox="0 0 25 29.63"><path class="a" d="M9.09,1.928c-3.068,0-5.556,2.9-5.556,6.481a6.359,6.359,0,0,0,4.274,6.308l-.92,14.992a1.725,1.725,0,0,0,1.738,1.848h.926a1.725,1.725,0,0,0,1.738-1.848l-.92-14.992A6.359,6.359,0,0,0,14.646,8.41c0-3.58-2.487-6.481-5.556-6.481Zm18.673,0L26.22,11.187H25.062l-.772-9.259h-.772l-.772,9.259H21.59L20.047,1.928h-.772V13.965a.926.926,0,0,0,.926.926h2.411L21.7,29.709a1.725,1.725,0,0,0,1.738,1.848h.926a1.725,1.725,0,0,0,1.738-1.848L25.2,14.891h2.411a.926.926,0,0,0,.926-.926V1.928Z" transform="translate(-3.535 -1.928)"/></svg>