<svg xmlns="http://www.w3.org/2000/svg" width="85" height="84.992" viewBox="0 0 85 84.992"><g transform="translate(30 30)"><path class="a" d="M16.013,7.309a.219.219,0,0,0-.285,0l-8.892,7.3a.248.248,0,0,0-.086.181V28.25a.116.116,0,0,0,.114.117H13.02a.116.116,0,0,0,.114-.117V20.058a.116.116,0,0,1,.114-.117h5.244a.116.116,0,0,1,.114.117V28.25a.116.116,0,0,0,.114.117h6.156a.116.116,0,0,0,.114-.117V14.792a.239.239,0,0,0-.086-.181Z" transform="translate(-3.374 -3.375)"/><path class="a" d="M28.048,14.358,16.694,3.713a1.172,1.172,0,0,0-1.646,0L10.1,8.416V5.449a.132.132,0,0,0-.12-.141h-3.6a.132.132,0,0,0-.12.141v6.483L3.693,14.4a1.053,1.053,0,0,0-.318.717,1.094,1.094,0,0,0,.246.752.754.754,0,0,0,1.123.07L15.793,5.534a.1.1,0,0,1,.078-.028.131.131,0,0,1,.078.028L27,15.9a.754.754,0,0,0,1.123-.07,1.07,1.07,0,0,0,.252-.752A1.059,1.059,0,0,0,28.048,14.358Z" transform="translate(-3.374 -3.375)"/><path class="b" d="M16.013,7.309a.219.219,0,0,0-.285,0l-8.892,7.3a.248.248,0,0,0-.086.181V28.25a.116.116,0,0,0,.114.117H13.02a.116.116,0,0,0,.114-.117V20.058a.116.116,0,0,1,.114-.117h5.244a.116.116,0,0,1,.114.117V28.25a.116.116,0,0,0,.114.117h6.156a.116.116,0,0,0,.114-.117V14.792a.239.239,0,0,0-.086-.181Z" transform="translate(-3.374 -3.375)"/><path class="b" d="M28.048,14.358,16.694,3.713a1.172,1.172,0,0,0-1.646,0L10.1,8.416V5.449a.132.132,0,0,0-.12-.141h-3.6a.132.132,0,0,0-.12.141v6.483L3.693,14.4a1.053,1.053,0,0,0-.318.717,1.094,1.094,0,0,0,.246.752.754.754,0,0,0,1.123.07L15.793,5.534a.1.1,0,0,1,.078-.028.131.131,0,0,1,.078.028L27,15.9a.754.754,0,0,0,1.123-.07,1.07,1.07,0,0,0,.252-.752A1.059,1.059,0,0,0,28.048,14.358Z" transform="translate(-3.374 -3.375)"/></g></svg>